<svg width="521" height="59" viewBox="0 0 521 59" fill="none" xmlns="http://www.w3.org/2000/svg">
<path opacity="0.6" d="M0 57H520" stroke="black" stroke-width="3"/>
<path opacity="0.6" d="M36.9273 17.8201C35.0179 18.7254 32.0511 20.4736 28.7023 22.5027L12.6636 20.1302C11.7635 19.9922 10.8461 20.0603 9.97281 20.33L6.49188 21.3789C6.19812 21.3789 6.19812 21.6911 6.49188 21.8159L19.8869 28.0595C15.3631 30.9315 11.3387 33.5538 9.57625 34.7401C9.26178 34.95 8.90753 35.0835 8.53886 35.131C8.17018 35.1785 7.79619 35.1388 7.44362 35.0148L3.93625 33.8348C3.37929 33.6237 2.77046 33.6259 2.21487 33.841L0 34.8025L7.4025 41.3582C7.77463 41.69 8.22727 41.9035 8.70844 41.9742C9.1896 42.0448 9.67976 41.9699 10.1226 41.7578C13.6594 40.0783 22.9713 35.5205 29.9038 31.6807C45.2962 23.0022 47 21.5038 47 20.1302C47 17.9762 41.125 15.7597 36.9244 17.8201H36.9273Z" fill="black"/>
<path opacity="0.6" d="M514.115 31.7091C512.333 30.5735 509.274 28.9906 505.775 27.2337L499.255 12.3891C498.893 11.5535 498.348 10.8128 497.655 10.2166L494.916 7.82646C494.76 7.57769 494.495 7.7437 494.546 8.05887L496.381 22.7231C491.543 20.4193 487.183 18.4056 485.241 17.5438C484.896 17.3891 484.594 17.1601 484.358 16.8731C484.122 16.5862 483.956 16.2483 483.874 15.8838L483.008 12.286C482.891 11.702 482.565 11.1876 482.087 10.8315L480.095 9.46706L478.48 19.2223C478.397 19.7139 478.457 20.2108 478.653 20.6558C478.849 21.1009 479.173 21.4761 479.588 21.7384C482.891 23.8405 491.703 29.3028 498.641 33.1319C514.176 41.5524 516.352 42.1984 517.515 41.468C519.339 40.3225 518.092 34.1684 514.113 31.7066L514.115 31.7091Z" fill="black"/>
</svg>
